<svg id="VentayCarga" xmlns="http://www.w3.org/2000/svg" xmlns:xlink="http://www.w3.org/1999/xlink" width="383.965" height="488" viewBox="0 0 383.965 488">
  <defs>
    <clipPath id="clip-path">
      <rect id="Rectángulo_7" data-name="Rectángulo 7" width="383.965" height="488" fill="none"/>
    </clipPath>
  </defs>
  <g id="Grupo_7" data-name="Grupo 7" clip-path="url(#clip-path)">
    <path id="Trazado_5" data-name="Trazado 5" d="M187.068,0C290.382,0,374.133,83.754,374.13,187.068S199.8,477.209,187.068,478.159,0,290.386,0,187.068,83.753,0,187.068,0" transform="translate(4.918 4.918)" fill="#007fc7" fill-rule="evenodd"/>
    <path id="Trazado_6" data-name="Trazado 6" d="M39.757,70.331l1.5-1.529,3.037-3.016,4.018-4.018,4.64-4.608,4.831-4.725L62.346,48l3.865-3.716,2.766-2.516.489-.44L70,40.91l.5-.271.531-.25.483-.244.473-.154.467-.2.451-.112.929-.122h.828l.839.085.717.223.669.218.653.249.531.318.43.244.648.435.169.2L109,70.517,92.186,70.48V95.267l-.032,4.677v19.595l-.027.563v1.37L92.09,122.8l-.074,1.306-.149,1.269-.122,1.21-.175,1.173-.191,1.168-.239,1.109-.255,1.189-.318.908-.319,1.062-.35.9-.436.982-.425.913-.456.844-.493.749-.605.8-.531.722-.669.728-.664.6-.722.579-.737.568-.759.531-.823.4-.913.446-.9.3-1.062.271-.966.223-1.062.266-1.141.1-1.147.1h-1.2L73,144.181l-1.194-.09-1.094-.112-1.1-.239L68.6,143.5l-.955-.292-.9-.287-.9-.467L65,142.041l-.77-.531-.791-.531-.674-.584-.632-.6-.658-.727-.615-.722-.531-.791-.483-.786-.489-.817-.4-.913-.419-.945-.345-.971-.313-1.019-.286-1.019-.239-1.163-.249-1.126-.17-1.168-.2-1.173-.111-1.227-.106-1.268-.053-1.311-.064-1.327V70.406Z" transform="translate(84.044 83.655)" fill="#7a8e21" fill-rule="evenodd"/>
    <path id="Trazado_7" data-name="Trazado 7" d="M38.674,122.545a40.282,40.282,0,0,1-18.888-5.2l-1.592,15.071a73.125,73.125,0,0,0,21.41,3.318c16.887.058,31.39-6.848,31.459-25.169.09-28.014-36.561-22.015-36.513-36.5a11.632,11.632,0,0,1,13.2-11.573A43.211,43.211,0,0,1,64.74,66.145l1.592-13.8A63.037,63.037,0,0,0,46.346,49.29C31.619,49.243,17.11,56.006,17.052,74.7c-.1,27.648,36.556,21.182,36.508,37.108-.032,7.538-8.542,10.734-14.865,10.713m115.225-18.05h0l.175-53.39-16.765-.053-.159,48.245c-.042,14.243-4.618,23.555-17.418,23.507s-17.327-9.386-17.285-23.629l.154-48.245-16.765-.053-.175,53.39c-.074,22.392,12.587,31.645,34.029,31.719s34.14-9.1,34.209-31.5m53.055-12.873h0V91.4a18.7,18.7,0,0,0,16.7-18.628c.058-18.235-15.974-21.463-26.751-21.516l-29.331-.09-.281,83.548,29.331.1c10.57,0,29.346-3.09,29.41-24.086a19.408,19.408,0,0,0-19.079-19.111M184.3,64.377h6.466a48.481,48.481,0,0,1,6.094.324c5.473.728,10.039,3.015,10.023,10.135-.027,6.344-4.778,8.844-10.087,9.72a35.286,35.286,0,0,1-5.744.414h-6.816Zm12.375,57h0a39.229,39.229,0,0,1-4.672.25h-7.894l.085-24.186h7.889a41.54,41.54,0,0,1,4.666.239c6.71.738,12.576,3.525,12.544,12.391,0,7.8-6.174,10.543-12.619,11.307m92.536.563h0l-32.781-.106.08-23.47,29.782.1.042-13.166-29.787-.1.069-20.6,32.548.111.048-13.166L239.9,51.387l-.276,83.554,49.541.159Z" transform="translate(38.861 102.997)" fill="#fff" fill-rule="evenodd"/>
  </g>
</svg>
